<?xml version="1.0" encoding="UTF-8"?>
<svg id="Layer_2" data-name="Layer 2" xmlns="http://www.w3.org/2000/svg" viewBox="0 0 66.51 54.59">
  <defs>
    <style>
      .cls-1 {
        fill: #fff;
      }

      .cls-2 {
        fill: #72c16b;
      }

      .cls-3 {
        fill: none;
      }
    </style>
  </defs>
  <g id="Layer_1-2" data-name="Layer 1">
    <g>
      <path class="cls-1" d="m32.1,35.94c.28,0,.5.06.68.19.18.13.28.3.3.52l-.48.19s0-.04,0-.08c0-.13-.04-.23-.13-.3-.09-.07-.2-.11-.34-.11-.27,0-.5.16-.71.47-.2.31-.31.69-.31,1.15,0,.27.05.49.17.65.12.17.28.25.49.25.11,0,.22-.03.35-.1.04-.15.1-.43.19-.82.02-.08,0-.17-.03-.26h.67c-.07.05-.11.13-.14.24-.04.16-.11.51-.23,1.04-.22.23-.48.34-.78.34-.41,0-.71-.12-.91-.37s-.3-.58-.3-1.01c0-.56.14-1.03.42-1.42.28-.39.64-.58,1.08-.58Zm1.88.43l-.23,1.02c.21-.16.41-.24.58-.24.16,0,.28.04.36.12.08.08.12.18.12.32,0,.06,0,.11-.02.14l-.28,1.24c-.02.11-.02.2.01.28h-.59c.05-.06.09-.15.12-.25.11-.43.2-.83.28-1.19.01-.05.02-.09.02-.13,0-.11-.06-.16-.17-.16-.14,0-.26.05-.37.16-.11.11-.18.24-.21.39l-.21.89c-.02.08-.02.18,0,.29h-.59c.07-.1.11-.2.13-.28l.47-2.1c.02-.07.02-.18,0-.32l.57-.18Zm2.18.78c.38,0,.58.13.58.39,0,.03,0,.07-.02.11-.03.15-.13.57-.29,1.27-.03.14-.02.25.01.35h-.47v-.19c-.14.15-.32.23-.53.23-.18,0-.33-.05-.42-.14-.1-.09-.15-.22-.15-.39s.05-.3.15-.43c.1-.12.22-.22.37-.27.09-.04.23-.08.43-.13.17-.04.28-.08.35-.12.06-.04.1-.1.11-.18,0-.09-.06-.14-.19-.14-.1,0-.22.03-.34.1-.12.07-.23.17-.33.29-.07-.13-.1-.22-.1-.28,0-.13.09-.24.26-.34.17-.09.37-.14.59-.14Zm-.03,1.07l-.49.16c-.2.09-.3.2-.3.35,0,.05.02.09.06.13.04.04.09.06.14.06.16,0,.29-.07.39-.2.1-.13.17-.3.19-.51Zm1.53-1.05l-.41,1.81c-.02.11-.02.2.02.28h-.61c.06-.05.1-.12.12-.2.15-.63.25-1.07.3-1.32.03-.16.03-.29,0-.38l.58-.19Zm-.12-.7c.15,0,.23.09.23.27,0,.08-.03.15-.08.22-.05.06-.11.1-.18.1-.17,0-.25-.09-.25-.26,0-.09.03-.16.08-.23.06-.06.12-.1.2-.1Zm1,.79h.13c.11,0,.22-.03.31-.09,0,.01-.02.05-.04.12-.02.07-.04.11-.05.13-.01.02-.03.05-.06.1-.03.04-.06.07-.1.09-.04.01-.09.02-.14.02h-.14s-.08.37-.24,1.02c0,.02-.01.05-.01.09,0,.19.15.24.44.17-.01.02-.02.05-.04.08-.02.03-.03.06-.03.07,0,.01-.01.03-.02.05-.01.02-.02.04-.02.05,0,0-.01.02-.02.03,0,.01-.02.02-.03.03,0,0-.02.01-.03.02,0,0-.02.01-.03.02-.05.03-.12.04-.2.04-.15,0-.26-.04-.35-.12-.09-.08-.13-.19-.13-.33,0-.04,0-.09.02-.14l.25-1.07h-.2l.1-.37h.19l.11-.5.49-.15-.15.65Zm1.32-.89l-.23,1.02c.21-.16.41-.24.58-.24.16,0,.28.04.36.12.08.08.12.18.12.32,0,.06,0,.11-.02.14l-.28,1.24c-.02.11-.02.2.01.28h-.59c.05-.06.09-.15.12-.25.11-.43.2-.83.28-1.19.01-.05.02-.09.02-.13,0-.11-.06-.16-.17-.16-.14,0-.26.05-.37.16-.11.11-.18.24-.21.39l-.21.89c-.02.08-.02.18,0,.29h-.59c.07-.1.11-.2.13-.28l.47-2.1c.02-.07.02-.18,0-.32l.57-.18Zm2.83-.1c0-.07-.01-.14-.03-.19h1.66c-.01.05-.05.22-.12.51-.09-.04-.18-.07-.27-.07h-.79l-.21.94h.48c.1,0,.22-.02.36-.07l-.13.57c-.09-.05-.2-.08-.35-.08h-.45c-.05.2-.13.55-.24,1.04-.02.14-.02.25.02.34h-.67c.09-.14.15-.26.17-.37.05-.19.23-1.02.57-2.5,0-.05.01-.09.01-.13h0Zm2.2.88c.26,0,.46.08.6.24.14.16.22.36.22.61,0,.36-.1.66-.31.92-.21.25-.48.38-.8.38-.24,0-.43-.07-.59-.22-.15-.14-.23-.37-.23-.69,0-.34.1-.63.31-.87.21-.25.48-.37.8-.37Zm.35.82c0-.3-.12-.45-.36-.45-.18,0-.33.09-.45.28-.12.19-.18.42-.18.69,0,.14.03.24.1.32.07.08.16.12.27.12.19,0,.34-.1.45-.3s.17-.42.17-.65h0Zm1.29-.53c.13-.2.26-.3.38-.3.07,0,.12.02.15.07.03.05.04.14.05.27-.17,0-.33.05-.46.16-.06.05-.11.11-.14.17-.03.06-.06.19-.11.38,0,.04-.02.09-.03.15s-.04.15-.06.26c-.02.11-.05.2-.07.3-.02.12-.02.23.01.35h-.59c.06-.08.1-.21.14-.37.05-.2.14-.58.26-1.15.02-.09.03-.17.03-.24,0-.04-.01-.1-.04-.17l.52-.17-.05.28h0Zm3.51-1.51c.27,0,.49.06.66.19.17.13.27.3.3.52l-.47.19v-.08c0-.13-.04-.23-.13-.3-.09-.07-.2-.11-.33-.11-.27,0-.51.15-.71.46-.2.31-.3.69-.3,1.15,0,.27.06.49.17.65.11.16.27.25.47.25.19,0,.37-.07.52-.21.15-.14.27-.32.35-.55.06.09.11.19.15.3.01.02.02.05.02.09,0,.18-.1.36-.31.53-.21.18-.44.26-.71.26-.41,0-.71-.12-.9-.37-.2-.25-.29-.58-.29-1.01,0-.58.14-1.06.43-1.43.29-.37.65-.56,1.07-.56Zm2.02,1.21c.26,0,.46.08.6.24.14.16.22.36.22.61,0,.36-.1.66-.31.92-.21.25-.48.38-.8.38-.24,0-.43-.07-.59-.22-.15-.14-.23-.37-.23-.69,0-.34.1-.63.31-.87.21-.25.48-.37.8-.37Zm.35.82c0-.3-.12-.45-.36-.45-.18,0-.33.09-.45.28-.12.19-.18.42-.18.69,0,.14.03.24.1.32.07.08.16.12.27.12.19,0,.34-.1.45-.3s.17-.42.17-.65h0Zm2.31-.52c.19-.19.39-.29.61-.29.13,0,.23.03.31.1.07.07.11.16.11.28,0,.03,0,.07-.01.13l-.29,1.3c-.02.08-.01.18.01.3h-.59c.06-.07.12-.24.18-.51,0,0,0-.04.02-.11.02-.07.04-.19.08-.36.04-.17.08-.36.12-.55,0-.02,0-.04,0-.07,0-.08-.04-.12-.12-.12-.1,0-.2.05-.31.16-.1.1-.17.21-.19.31l-.23.97c-.02.08-.02.18.02.28h-.6c.06-.09.1-.16.12-.22l.3-1.31s0-.02,0-.03c0-.01,0-.03,0-.03,0-.09-.04-.13-.13-.13-.11,0-.22.05-.32.16-.1.11-.16.22-.19.33l-.23,1.01c-.02.08-.01.16.02.23h-.6c.06-.06.11-.18.16-.38l.25-1.08c.03-.15.04-.24.04-.28,0-.05-.01-.11-.04-.19l.52-.17c-.01.06-.03.16-.05.3l.21-.16c.13-.09.27-.13.41-.13.2,0,.34.1.4.28h0Zm2.85,0c.19-.19.39-.29.61-.29.13,0,.23.03.31.1.07.07.11.16.11.28,0,.03,0,.07-.01.13l-.29,1.3c-.02.08-.01.18.01.3h-.59c.06-.07.12-.24.18-.51,0,0,0-.04.02-.11.02-.07.04-.19.08-.36.04-.17.08-.36.12-.55,0-.02,0-.04,0-.07,0-.08-.04-.12-.12-.12-.1,0-.2.05-.31.16-.1.1-.17.21-.19.31l-.23.97c-.02.08-.02.18.02.28h-.6c.06-.09.1-.16.12-.22l.3-1.31s0-.02,0-.03c0-.01,0-.03,0-.03,0-.09-.04-.13-.13-.13-.11,0-.22.05-.32.16-.1.11-.16.22-.19.33l-.23,1.01c-.02.08-.01.16.02.23h-.6c.06-.06.11-.18.16-.38l.25-1.08c.03-.15.04-.24.04-.28,0-.05-.01-.11-.04-.19l.52-.17c-.01.06-.03.16-.05.3l.21-.16c.13-.09.27-.13.41-.13.2,0,.34.1.4.28h0Zm3.03-.27l-.39,1.73c-.02.1-.02.22,0,.35h-.49l.05-.23c-.09.08-.15.13-.19.16-.04.03-.09.05-.16.08-.07.02-.14.03-.24.03-.13,0-.24-.04-.34-.11-.1-.07-.15-.18-.15-.31,0-.03.01-.09.04-.2.04-.16.12-.52.24-1.08.01-.08,0-.16-.01-.23l.55-.18-.34,1.5s-.02.08-.02.11c0,.1.06.14.18.14.06,0,.12-.02.2-.07.08-.04.14-.1.2-.16.09-.11.2-.48.33-1.13.02-.08.02-.16,0-.22l.55-.18Zm.7.28c.21-.2.43-.31.66-.31.15,0,.26.04.35.12.09.08.13.18.13.3,0,.04,0,.08-.02.12l-.29,1.28c-.02.11-.02.2,0,.28h-.59c.05-.06.09-.15.12-.25l.28-1.21c0-.06.01-.09.01-.1,0-.11-.06-.16-.17-.16-.14,0-.26.05-.36.16-.11.1-.18.24-.22.4l-.2.89c-.02.09-.02.19,0,.29h-.58c.06-.08.1-.18.12-.28l.3-1.3c.02-.09.01-.21-.03-.35l.52-.17-.05.3h0Zm2.07-.3l-.41,1.81c-.02.11-.02.2.02.28h-.61c.06-.05.1-.12.12-.2.15-.63.25-1.07.3-1.32.03-.16.03-.29,0-.38l.58-.19Zm-.12-.7c.15,0,.23.09.23.27,0,.08-.03.15-.08.22-.05.06-.11.1-.18.1-.17,0-.25-.09-.25-.26,0-.09.03-.16.08-.23.06-.06.12-.1.2-.1Zm1,.79h.13c.11,0,.22-.03.31-.09,0,.01-.02.05-.04.12-.02.07-.04.11-.05.13-.01.02-.03.05-.06.1-.03.04-.06.07-.1.09-.04.01-.09.02-.14.02h-.14s-.08.37-.24,1.02c0,.02-.01.05-.01.09,0,.19.15.24.44.17-.01.02-.02.05-.04.08-.02.03-.03.06-.03.07,0,.01-.01.03-.02.05-.01.02-.02.04-.02.05,0,0-.01.02-.02.03,0,.01-.02.02-.03.03,0,0-.02.01-.03.02,0,0-.02.01-.03.02-.05.03-.12.04-.2.04-.15,0-.26-.04-.35-.12-.09-.08-.13-.19-.13-.33,0-.04,0-.09.02-.14l.25-1.07h-.2l.1-.37h.19l.11-.5.49-.15-.15.65Zm2.26-.11l-.5,2.26c-.04.18-.13.32-.26.42-.14.1-.31.16-.52.16-.12,0-.24-.02-.37-.06-.13-.04-.22-.09-.27-.15-.06-.06-.09-.2-.08-.4.22.16.44.24.66.24.14,0,.23-.02.29-.07.06-.05.1-.13.13-.26l.05-.22c-.18.16-.37.24-.57.24-.14,0-.25-.03-.35-.1-.1-.07-.15-.16-.15-.28,0-.04,0-.07.02-.11l.27-1.22c.02-.07.01-.15-.02-.23l.55-.19-.34,1.52c0,.05-.01.08-.01.1,0,.09.04.14.13.15.09,0,.17-.01.26-.06.1-.05.17-.1.21-.16.02-.02.04-.05.06-.09.02-.04.04-.09.06-.15.02-.06.03-.12.05-.17.02-.05.03-.12.05-.2s.03-.14.04-.19c0-.05.02-.11.04-.19s.03-.13.03-.15c.02-.09.02-.17,0-.24l.55-.19Z"/>
      <path class="cls-1" d="m31.75,40.8c.16,0,.3.02.45.06.14.04.28.11.42.2.14.09.25.23.33.42.08.19.12.41.12.67s-.04.53-.13.8c-.09.27-.21.51-.37.71-.13.16-.29.29-.49.39-.2.1-.4.15-.61.15-.31,0-.62-.09-.91-.27l.42-1.88c.02-.08.01-.18-.02-.29l.62-.19-.47,2.1c.11.06.23.09.37.09.3,0,.55-.15.75-.46.2-.31.3-.7.3-1.19,0-.6-.26-.89-.79-.89-.34,0-.6.09-.77.27-.17.18-.26.42-.26.72-.19-.16-.28-.32-.28-.46,0-.23.12-.45.36-.65.24-.2.56-.3.96-.3Zm2.47,1.21c.22,0,.39.08.52.23.13.15.18.35.17.59l-1.27.68c.02.07.07.14.14.19.07.05.14.08.22.08.13,0,.25-.06.37-.19.12-.13.21-.29.26-.49.13.1.2.2.2.31,0,.16-.09.33-.27.51-.18.17-.38.26-.62.26-.25,0-.45-.08-.59-.25-.14-.16-.21-.38-.21-.64,0-.33.1-.63.31-.89.21-.26.46-.39.77-.39Zm0,.36c-.15,0-.27.07-.38.21-.11.14-.18.31-.21.51l.84-.44c0-.07-.02-.14-.07-.19s-.11-.08-.17-.08Zm2.18-.36c.11,0,.21.04.3.12.09.08.13.18.13.32,0,.2-.08.44-.25.7-.17.26-.41.59-.74.98h-.46s-.01-.15-.03-.31c-.02-.16-.04-.34-.06-.55-.02-.21-.05-.43-.07-.65-.02-.2-.06-.37-.12-.49h.6c-.04.08-.06.17-.05.26l.09,1.25c.1-.12.22-.27.34-.47.2-.29.29-.51.29-.66,0-.14-.08-.2-.23-.2-.02,0-.06,0-.12.01.05-.11.11-.19.16-.23.05-.05.13-.07.22-.07Zm1.58,0c.22,0,.39.08.52.23.13.15.18.35.17.59l-1.27.68c.02.07.07.14.14.19.07.05.14.08.22.08.13,0,.25-.06.37-.19.12-.13.21-.29.26-.49.13.1.2.2.2.31,0,.16-.09.33-.27.51-.18.17-.38.26-.62.26-.25,0-.45-.08-.59-.25-.14-.16-.21-.38-.21-.64,0-.33.1-.63.31-.89.21-.26.46-.39.77-.39Zm0,.36c-.15,0-.27.07-.38.21-.11.14-.18.31-.21.51l.84-.44c0-.07-.02-.14-.07-.19s-.11-.08-.17-.08Zm1.81-1.12l-.58,2.6c-.02.09-.02.18.02.27h-.59c.06-.08.1-.18.12-.28l.47-2.09c.02-.12.02-.23-.01-.32l.56-.18Zm1.01.76c.26,0,.46.08.6.24.14.16.22.36.22.61,0,.36-.1.66-.31.92-.21.25-.48.38-.8.38-.24,0-.43-.07-.59-.22-.15-.14-.23-.37-.23-.69,0-.34.1-.63.31-.87.21-.25.48-.37.8-.37Zm.35.82c0-.3-.12-.45-.36-.45-.18,0-.33.09-.45.28-.12.19-.18.42-.18.69,0,.14.03.24.1.32.07.08.16.12.27.12.19,0,.34-.1.45-.3s.17-.42.17-.65h0Zm.91-.64c.18-.12.39-.19.62-.19.25,0,.45.08.6.24.15.16.22.38.22.64,0,.34-.09.63-.27.88-.18.25-.39.38-.63.38-.11,0-.2-.03-.28-.08-.08-.05-.12-.12-.12-.21,0-.07.05-.18.15-.32.05.14.12.2.21.2.13,0,.24-.09.34-.28.09-.19.14-.4.14-.63,0-.3-.12-.45-.35-.45-.08,0-.16.02-.24.06l-.46,2.03c-.04.16-.04.29,0,.39h-.6c.07-.12.13-.26.17-.42l.51-2.26h0Zm3.31.12c.19-.19.39-.29.61-.29.13,0,.23.03.31.1.07.07.11.16.11.28,0,.03,0,.07-.01.13l-.29,1.3c-.02.08-.01.18.01.3h-.59c.06-.07.12-.24.18-.51,0,0,0-.04.02-.11.02-.07.04-.19.08-.36.04-.17.08-.36.12-.55,0-.02,0-.04,0-.07,0-.08-.04-.12-.12-.12-.1,0-.2.05-.31.16-.1.1-.17.21-.19.31l-.23.97c-.02.08-.02.18.02.28h-.6c.06-.09.1-.16.12-.22l.3-1.31s0-.02,0-.03c0-.01,0-.03,0-.03,0-.09-.04-.13-.13-.13-.11,0-.22.05-.32.16-.1.11-.16.22-.19.33l-.23,1.01c-.02.08-.01.16.02.23h-.6c.06-.06.11-.18.16-.38l.25-1.08c.03-.15.04-.24.04-.28,0-.05-.01-.11-.04-.19l.52-.17c-.01.06-.03.16-.05.3l.21-.16c.13-.09.27-.13.41-.13.2,0,.34.1.4.28h0Zm2.26-.3c.22,0,.39.08.52.23.13.15.18.35.17.59l-1.27.68c.02.07.07.14.14.19.07.05.14.08.22.08.13,0,.25-.06.37-.19.12-.13.21-.29.26-.49.13.1.2.2.2.31,0,.16-.09.33-.27.51-.18.17-.38.26-.62.26-.25,0-.45-.08-.59-.25-.14-.16-.21-.38-.21-.64,0-.33.1-.63.31-.89.21-.26.46-.39.77-.39Zm0,.36c-.15,0-.27.07-.38.21-.11.14-.18.31-.21.51l.84-.44c0-.07-.02-.14-.07-.19s-.11-.08-.17-.08Zm1.5-.04c.21-.2.43-.31.66-.31.15,0,.26.04.35.12.09.08.13.18.13.3,0,.04,0,.08-.02.12l-.29,1.28c-.02.11-.02.2,0,.28h-.59c.05-.06.09-.15.12-.25l.28-1.21c0-.06.01-.09.01-.1,0-.11-.06-.16-.17-.16-.14,0-.26.05-.36.16-.11.1-.18.24-.22.4l-.2.89c-.02.09-.02.19,0,.29h-.58c.06-.08.1-.18.12-.28l.3-1.3c.02-.09.01-.21-.03-.35l.52-.17-.05.3h0Zm2.09-.21h.13c.11,0,.22-.03.31-.09,0,.01-.02.05-.04.12-.02.07-.04.11-.05.13-.01.02-.03.05-.06.1-.03.04-.06.07-.1.09-.04.01-.09.02-.14.02h-.14s-.08.37-.24,1.02c0,.02-.01.05-.01.09,0,.19.15.24.44.17-.01.02-.02.05-.04.08-.02.03-.03.06-.03.07,0,.01-.01.03-.02.05-.01.02-.02.04-.02.05,0,0-.01.02-.02.03,0,.01-.02.02-.03.03,0,0-.02.01-.03.02,0,0-.02.01-.03.02-.05.03-.12.04-.2.04-.15,0-.26-.04-.35-.12-.09-.08-.13-.19-.13-.33,0-.04,0-.09.02-.14l.25-1.07h-.2l.1-.37h.19l.11-.5.49-.15-.15.65Z"/>
      <path class="cls-3" d="m38.5,16.71l-.45,1.94s.03.09.09.16c.07.08.14.13.22.16.17.09.33.09.49,0,.16-.08.29-.21.39-.41.16-.32.23-.66.2-1.01-.02-.35-.13-.59-.34-.73s-.41-.18-.61-.12Z"/>
      <path class="cls-3" d="m30.98,18.34c-.02.2,0,.35.05.46.05.1.12.15.21.15.27-.01.52-.19.74-.55.26-.43.45-.97.57-1.61-.43.04-.78.22-1.08.52-.29.3-.46.64-.49,1.03Z"/>
      <rect class="cls-2" x="35.3" y="20.24" width=".79" height=".76" transform="translate(-4.21 30.98) rotate(-44.57)"/>
      <polygon class="cls-2" points="33.94 20.63 34.48 21.17 35.03 20.61 34.5 20.08 33.94 20.63"/>
      <path class="cls-2" d="m49.34,15.46c0,.09-.03.26-.1.53-.16.65-.33,1.38-.5,2.19-.09.36-.18.58-.28.67-.1.09-.31.14-.63.14h-.2c-.19,0-.29-.08-.29-.23,0-.02,0-.08.02-.18l.22-.97.64-2.72-.95.29c.03.08.04.18.04.28,0,.09-.03.26-.1.53l-.27,1.19c-.03.12-.06.28-.11.49-.05.21-.08.36-.11.45-.02.09-.05.19-.09.32-.04.12-.07.21-.11.27-.03.06-.07.11-.11.15-.09.09-.29.13-.62.13h-.22c-.19,0-.29-.08-.29-.23,0-.04,0-.1.02-.16.04-.17.07-.28.08-.32.31-1.3.48-2.03.52-2.19l-.93.28c.02.06.03.16.03.28,0,.09-.03.26-.1.52l-.15.61c-.13.6-.26.96-.39,1.08-.08.08-.29.12-.61.12h-1.22c-.2,0-.3-.08-.29-.24,0-.04,0-.1.02-.16.03-.11.05-.22.07-.32l.53-2.2-.95.28c.02.06.03.16.03.28s-.08.5-.24,1.13l-.1.41c-.09.37-.18.59-.28.68-.1.09-.31.13-.63.13h-.33c-.2,0-.3-.08-.3-.24,0-.02,0-.08.02-.16.07-.19.11-.4.13-.62.01-.22,0-.44-.05-.66-.05-.22-.15-.43-.3-.62-.15-.19-.34-.35-.57-.46-.24-.12-.5-.19-.78-.19-.28,0-.5.04-.66.13l-.57,2.37c-.04.12-.08.21-.12.27-.04.05-.11.1-.21.14-.11.04-.27.06-.48.06h-.19c-.19,0-.29-.08-.29-.23,0-.04,0-.1.02-.16.04-.17.07-.28.08-.32.31-1.3.48-2.03.52-2.19l-.93.28c.02.06.03.16.03.28,0,.09-.03.26-.1.52l-.15.61c-.13.6-.26.96-.39,1.08-.08.08-.29.12-.61.12h-1.4c-.19,0-.28-.08-.28-.23,0-.05,0-.1.02-.15.1-.4.21-.81.32-1.24.11-.43.19-.72.23-.87.04-.15.06-.24.06-.25-.35-.14-.72-.18-1.11-.13-.39.06-.73.18-1.03.37-.27.18-.5.42-.7.74-.2.31-.32.68-.36,1.11-.05.42,0,.75.14.99.14.24.36.36.66.36.38,0,.71-.22.99-.65.04.17.13.31.28.4.15.1.33.15.54.15h2.22c.19,0,.35-.04.49-.13.13.09.29.13.48.13h1.31c.29,0,.47-.08.55-.23.1.12.21.2.33.26.49.24.94.18,1.36-.19.04.03.09.06.14.08.1.05.23.08.4.08h1.18c.18,0,.34-.05.49-.14.15.09.31.14.49.14h2.07c.19,0,.35-.04.49-.13.13.09.29.13.48.13h1.08c.19,0,.36-.04.49-.12.16.08.32.12.49.12h1.06c.33,0,.56-.09.69-.28.13-.19.25-.53.36-1.03l.78-3.38-.95.29c.03.08.04.18.04.28Zm-17.37,2.95c-.22.36-.46.54-.74.55-.09,0-.16-.05-.21-.15-.05-.11-.07-.26-.05-.46.04-.38.2-.72.49-1.03.29-.3.65-.47,1.08-.52-.12.64-.32,1.18-.57,1.61Zm7.27.16c-.1.2-.23.34-.39.41-.16.08-.33.08-.49,0-.08-.03-.15-.09-.22-.16-.07-.08-.1-.13-.09-.16l.45-1.94c.19-.06.4-.02.61.12s.32.38.34.73c.03.35-.04.69-.2,1.01Z"/>
      <polygon class="cls-2" points="59.76 20.63 60.3 21.17 60.85 20.61 60.31 20.08 59.76 20.63"/>
      <rect class="cls-2" x="31.54" y="14.77" width=".79" height=".77" transform="translate(-1.36 27.02) rotate(-45)"/>
      <path class="cls-2" d="m65.63,18.99h-1.15c-.29,0-.52-.09-.68-.28-.16-.19-.24-.44-.24-.75,0-.33.09-.62.28-.85.19-.23.43-.35.74-.35.63,0,1.03.4,1.22,1.2.15-.2.22-.46.22-.78s-.13-.59-.38-.8c-.25-.21-.61-.32-1.07-.32-.56,0-1.01.2-1.34.59-.33.4-.5.87-.5,1.41,0,.37.07.67.21.92h-.82c-.19,0-.29-.08-.29-.23,0-.04,0-.1.02-.16.04-.17.07-.28.08-.32.31-1.3.48-2.03.52-2.19l-.93.28c.02.06.03.16.03.28,0,.09-.03.26-.1.52l-.15.61c-.13.6-.26.96-.39,1.08-.08.08-.29.12-.61.12h-2.44c-.2,0-.3-.08-.3-.23,0-.03,0-.08.02-.17.03-.08.05-.19.08-.32.23-1.01.41-1.75.53-2.22l-.95.29c.03.08.04.18.04.28,0,.09-.03.26-.1.53-.04.2-.09.41-.14.61-.02.05-.05.19-.11.42-.08.36-.17.58-.27.67-.1.09-.31.14-.63.14h-1.24c-.59,0-.97-.34-1.14-1.03-.19.23-.27.46-.26.69.02.23.13.43.34.59.27.23.64.34,1.08.34h1.8c.19,0-.36-.04.49-.12.15.08.31.12.49.12h3.29c.19,0,.35-.04.49-.13.13.09.29.13.48.13h4.35c-.15-.39-.34-.59-.57-.59Z"/>
      <rect class="cls-2" x="61.11" y="20.24" width=".79" height=".76" transform="translate(3.22 49.1) rotate(-44.57)"/>
      <rect class="cls-2" x="64.11" y="14.48" width=".79" height=".76" transform="translate(8.93 50.81) rotate(-45.87)"/>
      <rect class="cls-2" x="32.98" y="14.77" width=".79" height=".77" transform="translate(-.94 28.04) rotate(-45)"/>
      <polygon class="cls-2" points="56.13 15.31 55.59 14.77 55.03 15.33 55.57 15.87 56.13 15.31"/>
      <polygon class="cls-2" points="56.16 16.71 56.72 16.14 56.17 15.6 55.62 16.16 56.16 16.71"/>
      <polygon class="cls-2" points="55.44 16.14 54.91 15.6 54.34 16.16 54.88 16.71 55.44 16.14"/>
      <rect class="cls-2" x="42.01" y="14.56" width=".79" height=".76" transform="translate(1.71 34.06) rotate(-44.57)"/>
      <polygon class="cls-2" points="46.22 14.93 45.67 14.39 45.11 14.95 45.66 15.5 46.22 14.93"/>
      <polygon class="cls-2" points="44.94 14.93 44.4 14.39 43.84 14.95 44.38 15.5 44.94 14.93"/>
      <path class="cls-3" d="m40.79,24.41c-.31.02-.59.1-.81.25-.43.29-.69.46-.79.51.04.22.24.51.59.88.35.37.68.59.97.66.31-.16.56-.4.75-.74.32-.58.32-1.02,0-1.34-.16-.16-.4-.23-.71-.21Z"/>
      <path class="cls-3" d="m46.25,24.43l-.47,1.94s.03.09.1.16c.07.08.15.13.23.16.17.09.34.09.51,0,.17-.08.3-.21.4-.41.17-.32.24-.66.21-1.01-.02-.35-.13-.59-.35-.73s-.43-.18-.63-.12Z"/>
      <path class="cls-3" d="m30.97,26.06c-.02.2,0,.35.05.46.05.1.12.15.22.15.29-.01.54-.19.76-.55.27-.43.47-.97.6-1.61-.44.04-.81.22-1.12.52-.3.3-.47.64-.51,1.03Z"/>
      <path class="cls-3" d="m59.89,24.43l-.47,1.94s.03.09.1.16c.07.08.15.13.23.16.17.09.34.09.51,0,.17-.08.3-.21.4-.41.17-.32.24-.66.21-1.01-.02-.35-.13-.59-.35-.73s-.43-.18-.63-.12Z"/>
      <polygon class="cls-2" points="36.56 28.35 37.11 28.89 37.69 28.33 37.14 27.8 36.56 28.35"/>
      <path class="cls-2" d="m65.38,22.92c.06.16.07.33.02.53l-.82,3.42s-.04.19-.12.46c.14,0,.28-.02.42-.07.29-.1.46-.27.51-.52l.97-4.12-.98.29Z"/>
      <polygon class="cls-2" points="54.78 28.44 55.33 28.97 55.91 28.36 55.36 27.82 54.78 28.44"/>
      <path class="cls-2" d="m63.57,22.89c.03.08.04.18.04.28,0,.09-.03.26-.1.53-.17.65-.34,1.38-.52,2.19-.09.36-.19.58-.29.67-.1.09-.32.14-.66.14h-.2c-.21,0-.31-.08-.31-.24,0-.02,0-.08.02-.16.07-.19.12-.4.13-.62.01-.22,0-.44-.05-.66-.05-.22-.15-.43-.31-.62-.15-.19-.35-.35-.59-.46-.25-.12-.52-.19-.81-.19-.29,0-.52.04-.68.13l-.59,2.37c-.04.12-.09.21-.12.27-.04.05-.11.1-.22.14-.11.04-.28.06-.5.06h-.83s-.05-.11-.11-.23c-.11-.18-.21-.36-.31-.52-.1-.16-.28-.43-.53-.81-.25-.38-.5-.69-.75-.93-.25-.24-.47-.38-.65-.42-.44-.08-.78-.02-1.01.17-.12.1-.21.2-.27.3-.06.11-.07.24-.04.42.03.17.11.37.25.6.08-.23.2-.4.34-.5.14-.1.28-.14.42-.12.14.02.28.07.41.16.13.08.24.19.34.32.39.54.75,1.06,1.08,1.56h-3.51c-.2,0-.3-.08-.3-.23,0-.04,0-.1.03-.16.04-.17.07-.28.08-.32.32-1.3.5-2.03.54-2.19l-.97.28c.02.06.03.16.03.28,0,.09-.03.26-.1.52l-.15.61c-.13.6-.27.96-.4,1.08-.08.08-.3.12-.64.12h-2.54c-.21,0-.31-.08-.31-.24,0-.02,0-.08.02-.16.07-.19.12-.4.13-.62.01-.22,0-.44-.05-.66-.05-.22-.15-.43-.31-.62-.15-.19-.35-.35-.59-.46-.25-.12-.52-.19-.81-.19-.29,0-.52.04-.68.13l-.59,2.37c-.04.12-.09.21-.12.27-.04.05-.11.1-.22.14-.11.04-.28.06-.5.06h-2.25c.5-.48.74-1.04.71-1.68-.01-.33-.17-.62-.47-.87-.3-.25-.7-.38-1.19-.37-.58,0-1.04.13-1.38.37-.68.51-1.1.81-1.25.88.3.85.68,1.41,1.14,1.67h-1.71c-.2,0-.3-.08-.3-.23,0-.04,0-.1.03-.16.04-.17.07-.28.08-.32.32-1.3.5-2.03.54-2.19l-.97.28c.02.06.03.16.03.28,0,.09-.03.26-.1.52l-.15.61c-.13.6-.27.96-.4,1.08-.08.08-.3.12-.64.12h-2.71c-.2,0-.29-.08-.29-.23,0-.05,0-.1.03-.15.11-.4.22-.81.34-1.24.12-.43.2-.72.24-.87.04-.15.06-.24.06-.25-.36-.14-.75-.18-1.15-.13-.4.06-.76.18-1.07.37-.28.18-.52.42-.73.74-.21.31-.33.68-.38,1.11-.05.42,0,.75.14.99.15.24.38.36.69.36.39,0,.74-.22,1.03-.65.04.17.14.31.29.4.15.1.34.15.56.15h3.56c.2,0,.36-.04.5-.13.14.09.31.13.5.13h7.57c.3,0,.49-.08.57-.23.11.12.22.2.34.26.5.24.97.18,1.41-.19.04.03.09.06.14.08.11.05.24.08.41.08h3.42c.2,0,.36-.04.5-.13.14.09.31.13.5.13h6.33c.3,0,.49-.08.57-.23.11.12.22.2.34.26.5.24.97.18,1.41-.19.04.03.09.06.14.08.11.05.24.08.41.08h1.09c.35,0,.59-.09.72-.28.13-.19.26-.53.37-1.03l.81-3.38-.99.29Zm-31.56,3.23c-.22.36-.48.54-.76.55-.1,0-.17-.05-.22-.15-.06-.11-.07-.26-.05-.46.04-.38.21-.72.51-1.03.3-.3.67-.47,1.12-.52-.13.64-.33,1.18-.6,1.61Zm9.49-.16c-.18.34-.43.59-.75.74-.3-.07-.62-.29-.97-.66-.35-.37-.55-.66-.59-.88.1-.05.36-.22.79-.51.23-.15.5-.23.81-.25.31-.02.55.05.71.21.31.32.31.77,0,1.34Zm5.53.32c-.1.2-.24.34-.4.41-.17.08-.34.08-.51,0-.08-.03-.16-.09-.23-.16-.07-.08-.1-.13-.1-.16l.47-1.94c.2-.06.41-.02.63.12s.34.38.35.73c.03.35-.04.69-.21,1.01Zm13.63,0c-.1.2-.24.34-.4.41-.17.08-.34.08-.51,0-.08-.03-.16-.09-.23-.16-.07-.08-.1-.13-.1-.16l.47-1.94c.2-.06.41-.02.63.12s.34.38.35.73c.03.35-.04.69-.21,1.01Z"/>
      <polygon class="cls-2" points="35.31 28.35 35.87 28.89 36.44 28.33 35.89 27.8 35.31 28.35"/>
      <polygon class="cls-2" points="32.53 22.87 31.97 22.32 31.39 22.88 31.96 23.42 32.53 22.87"/>
      <polygon class="cls-2" points="51.96 22.65 51.41 22.11 50.82 22.66 51.38 23.21 51.96 22.65"/>
      <polygon class="cls-2" points="53.3 22.65 52.73 22.11 52.15 22.66 52.71 23.21 53.3 22.65"/>
      <polygon class="cls-2" points="34.03 22.87 33.47 22.32 32.89 22.88 33.45 23.42 34.03 22.87"/>
      <g>
        <rect class="cls-1" x="30.39" y="32.43" width="35.98" height=".46"/>
        <path class="cls-2" d="m5.83,27.78c-.15,1.73-.06,3.43.33,5.13.32,1.4.94,2.64,1.67,3.85.18.31.22.66.04.97-.58,1-.89,2.02-1.12,3.15-.68,3.44-.13,6.9,1.65,9.92.69,1.18,1.47,2.15,2.42,3.28h.38c-1.57-1.62-2.77-3.5-3.49-5.64-1.51-4.2.76-8.86,5.05-10.04l3.4-.93c1.01-.28,1.96-.95,2.29-1.97.5-1.57.6-3.19.54-4.85-.32.7-.84,1.23-1.57,1.59-3.26,1.57-5.92.6-9.11,4.74-1.02-1.69-1.71-3.44-1.75-5.38-.04-2.35,1.08-4.6,2.88-6.05,2.21-1.78,4.43-1.63,6.66-2.58,1.18-.5,1.87-1.56,1.9-2.82.05-1.49.07-2.92.02-4.38-.75,2.52-2.57,2.86-4.9,3.35-4.26.9-6.93,4.45-7.29,8.64"/>
        <path class="cls-1" d="m.43,54.17V2.55s8.92,0,8.92,0c.12,0,.14-.31.08-.42H0s0,52.47,0,52.47h25.87s0-52.47,0-52.47h-8.63v.42s8.2.01,8.2.01v51.61"/>
        <path class="cls-2" d="m11.04,13.52c4.26.26,8.01-3.11,8.89-7.18.25,1.69.23,3.27-.22,4.89-.77,2.71-2.79,4.97-5.4,6.01-2.19.88-4.47.41-6.22-1.08-.52-.45-.99-.93-1.11-1.66-.39-2.39-.13-4.84.93-7,.61-1.24,1.62-2.12,2.95-2.39,1.78-.36,3.34.75,3.62,2.55.21,1.32.16,2.64.03,3.93-.44-1.56-1.82-2.52-3.45-2.31-1.41.18-2.74,1.22-3.21,2.62.7,1.02,2,1.56,3.2,1.63"/>
        <path class="cls-2" d="m13.98,4.35l-3.28-1.36,1.62-2.98,3.28,1.36c-.54,1.06-1,1.91-1.61,2.99"/>
        <path class="cls-2" d="m11.76,32.25l-2.92-1.97c.67-.91,1.35-1.72,2.16-2.62l2.93,1.98-2.17,2.61Z"/>
        <polygon class="cls-2" points="11.58 47.25 8.63 45.26 10.79 42.66 13.74 44.64 11.58 47.25"/>
        <polygon class="cls-2" points="15.13 49.7 12.19 47.72 14.36 45.11 17.3 47.09 15.13 49.7"/>
        <polygon class="cls-2" points="15.72 45.26 12.76 43.3 14.93 40.68 17.86 42.66 15.72 45.26"/>
        <path class="cls-2" d="m15.32,30.27l-2.94-1.97c.71-.94,1.39-1.76,2.18-2.61l2.93,1.98-2.16,2.61Z"/>
      </g>
    </g>
  </g>
</svg>
